<svg width="24" height="24" viewBox="0 0 24 24" fill="none" xmlns="http://www.w3.org/2000/svg">
<path fill-rule="evenodd" clip-rule="evenodd" d="M11.954 16.7361C11.954 16.3824 11.819 16.0682 11.5777 15.8356L9.87906 14.1144L8.58004 12.9273H9.15238L18.283 12.9609C18.6337 12.9609 18.9568 12.837 19.1934 12.6019C19.4301 12.3667 19.5553 12.0449 19.5553 11.6962C19.5553 11.3454 19.4313 11.0217 19.1943 10.7848C18.9574 10.5479 18.6338 10.4238 18.283 10.4238L9.15238 10.4573H8.58464L9.87932 9.27015L11.5777 7.54915C11.819 7.31662 11.954 7.00237 11.954 6.64872C11.954 5.94199 11.4049 5.4216 10.7043 5.4216C10.3606 5.4216 10.0541 5.55793 9.78943 5.81239L4.83703 10.7648C4.58396 11.0088 4.43726 11.3441 4.43726 11.6962C4.43726 12.0428 4.58547 12.3775 4.83716 12.6201L9.80625 17.5818L9.8126 17.5879C10.0628 17.8276 10.3616 17.9632 10.7043 17.9632C11.4049 17.9632 11.954 17.4428 11.954 16.7361Z" fill="#585A5F"/>
</svg>
